<mxfile host="app.diagrams.net" modified="2023-10-22T09:55:25.429Z" agent="Mozilla/5.0 (Windows NT 10.0; Win64; x64) AppleWebKit/537.36 (KHTML, like Gecko) Chrome/118.0.0.0 Safari/537.36" version="22.0.5" etag="GQYVhvZNPNhCREVfqVQr" type="github">
  <diagram name="第 1 页" id="cdreZZBAJ6BHFZEx-fbm">
    <mxGraphModel>
      <root>
        <mxCell id="0" />
        <mxCell id="1" parent="0" />
      </root>
    </mxGraphModel>
  </diagram>
</mxfile>
